<svg xmlns="http://www.w3.org/2000/svg" viewBox="0 0 100 200" class="w-full h-full">
  <defs>
    <linearGradient id="almondSkin" x1="0%" y1="0%" x2="100%" y2="0%">
      <stop offset="0%" style="stop-color:#F3E5D8;stop-opacity:1" />
      <stop offset="100%" style="stop-color:#E8D5C4;stop-opacity:1" />
    </linearGradient>
  </defs>
  <!-- Nail bed -->
  <path d="M30 80 C 30 80, 25 60, 35 40 C 42 25, 55 20, 65 40 C 72 60, 68 80, 68 80" 
        fill="#FFDFC4" stroke="#E08862" stroke-width="1"/>
  <!-- Almond nail - smooth oval taper -->
  <path d="M35 80 C 30 100, 30 140, 35 160 C 38 175, 50 180, 62 175 C 68 170, 70 160, 68 148 C 65 135, 63 120, 63 100 C 63 85, 63 80, 63 80" 
        fill="#FADADD" stroke="#D4A373" stroke-width="1.5" stroke-linejoin="round"/>
  <!-- Highlight -->
  <path d="M38 90 C 37 105, 37 120, 38 130" 
        stroke="white" stroke-width="2" stroke-linecap="round" fill="none" opacity="0.6"/>
</svg>